# xmcd
#
# Track frame offsets:
# 183
# 13228
# 28590
# 41228
# 54050
# 71620
# 88675
# 104428
# 119120
# 134370
# 145223
# 159635
# 176393
# 190440
#
# Disc length: 2747 seconds
#
#
# Revision: 0
# Processed by: cddbd v1.5.1PL0 Copyright (c) Steve Scherf et al.
# Submitted via: FreeRIP 2.70 
#
DISCID=ca0ab90e
DTITLE=Various Artist - 40 Great Country Classics Disc One
DYEAR=1994
DGENRE=Country
TTITLE0=She's Single Again
TTITLE1=He Stopped Loving Her Today
TTITLE2=D.I.V.O.R.C.E.
TTITLE3=Stand By Your Man
TTITLE4=Is There Life Out There
TTITLE5=Lost And Found
TTITLE6=Achy Breaky Heart
TTITLE7=Boot Scootin' Boogie
TTITLE8=Down At The Twist and Shout
TTITLE9=Chattahoochee
TTITLE10=One More Last Chance
TTITLE11=Blame It On Your Heart
TTITLE12=Guitars And Cadillacs
TTITLE13=I Feel Lucky
EXTD=
EXTT0=
EXTT1=
EXTT2=
EXTT3=
EXTT4=
EXTT5=
EXTT6=
EXTT7=
EXTT8=
EXTT9=
EXTT10=
EXTT11=
EXTT12=
EXTT13=
PLAYORDER=
